<svg width="643.115" height="95.801" viewBox="0 0 643.115 95.801" xmlns="http://www.w3.org/2000/svg"><g id="svgGroup" stroke-linecap="round" fill-rule="evenodd" font-size="9pt" stroke="#ffc400" stroke-width="2mm" fill="#ffffff" style="stroke:#ffc400;stroke-width:2mm;fill:#ffffff"><path d="M 49.512 3.906 L 59.424 48.486 L 67.578 3.906 L 84.57 3.906 L 69.482 75 L 51.709 75 L 42.188 34.473 L 32.861 75 L 15.137 75 L 0 3.906 L 17.041 3.906 L 25.195 48.486 L 34.961 3.906 L 49.512 3.906 Z M 613.721 22.168 L 622.021 53.32 L 627.344 22.168 L 643.115 22.168 L 630.664 75 L 616.748 75 L 608.008 43.652 L 599.219 75 L 585.303 75 L 572.852 22.168 L 588.623 22.168 L 593.848 54.053 L 602.246 22.168 L 613.721 22.168 Z M 337.891 48.779 L 337.891 48.193 A 41.395 41.395 0 0 1 338.509 40.871 A 31.389 31.389 0 0 1 340.527 34.033 A 23.524 23.524 0 0 1 343.842 28.453 A 19.637 19.637 0 0 1 348.096 24.536 A 19.454 19.454 0 0 1 357.663 21.265 A 24.282 24.282 0 0 1 359.57 21.191 Q 367.822 21.191 372.461 26.758 L 373.047 22.168 L 387.988 22.168 L 387.988 72.998 A 25.284 25.284 0 0 1 387.226 79.333 A 20.323 20.323 0 0 1 384.741 85.132 A 20.199 20.199 0 0 1 377.393 92.011 A 25.345 25.345 0 0 1 375.342 93.042 A 30.866 30.866 0 0 1 367.376 95.341 A 41.308 41.308 0 0 1 361.084 95.801 Q 355.273 95.801 349.829 93.604 Q 344.385 91.406 341.504 87.891 L 348.389 78.223 A 14.881 14.881 0 0 0 359.284 83.606 A 19.911 19.911 0 0 0 360.498 83.643 A 15.295 15.295 0 0 0 364.876 83.071 Q 369.719 81.623 370.986 76.503 A 17.062 17.062 0 0 0 371.436 72.412 L 371.436 70.752 A 15.354 15.354 0 0 1 360.256 75.961 A 19.445 19.445 0 0 1 359.473 75.977 A 20.42 20.42 0 0 1 351.348 74.405 A 19.401 19.401 0 0 1 343.848 68.579 A 25.56 25.56 0 0 1 339.114 58.991 Q 337.891 54.399 337.891 48.779 Z M 283.105 22.168 L 298.535 22.168 L 299.072 28.369 A 17.528 17.528 0 0 1 311.82 21.304 A 23.844 23.844 0 0 1 314.16 21.191 A 21.939 21.939 0 0 1 318.91 21.673 Q 322.007 22.36 324.274 24.027 A 12.382 12.382 0 0 1 326.489 26.123 A 15.858 15.858 0 0 1 329.153 30.952 Q 330.626 35.081 330.713 40.967 L 330.713 75 L 314.209 75 L 314.209 41.65 A 15.851 15.851 0 0 0 314.082 39.566 Q 313.767 37.205 312.679 35.864 A 4.748 4.748 0 0 0 312.598 35.767 A 4.502 4.502 0 0 0 310.936 34.585 Q 309.487 33.956 307.244 33.894 A 18.138 18.138 0 0 0 306.738 33.887 A 9.649 9.649 0 0 0 303.709 34.337 A 7.548 7.548 0 0 0 299.561 37.695 L 299.561 75 L 283.105 75 L 283.105 22.168 Z M 173.828 26.758 L 173.828 0 L 190.332 0 L 190.332 75 L 175.537 75 L 174.707 69.336 A 18.048 18.048 0 0 1 170.323 73.511 A 15.12 15.12 0 0 1 161.816 75.977 A 19.721 19.721 0 0 1 154.561 74.691 A 17.741 17.741 0 0 1 146.875 68.75 Q 141.357 61.523 141.357 48.193 A 47.005 47.005 0 0 1 141.969 40.363 Q 142.687 36.12 144.247 32.704 A 23.148 23.148 0 0 1 146.777 28.418 A 17.412 17.412 0 0 1 159.516 21.308 A 24.087 24.087 0 0 1 161.914 21.191 A 15.008 15.008 0 0 1 173.059 25.922 A 19.493 19.493 0 0 1 173.828 26.758 Z M 230.078 26.758 L 230.078 0 L 246.582 0 L 246.582 75 L 231.787 75 L 230.957 69.336 A 18.048 18.048 0 0 1 226.573 73.511 A 15.12 15.12 0 0 1 218.066 75.977 A 19.721 19.721 0 0 1 210.811 74.691 A 17.741 17.741 0 0 1 203.125 68.75 Q 197.607 61.523 197.607 48.193 A 47.005 47.005 0 0 1 198.219 40.363 Q 198.937 36.12 200.497 32.704 A 23.148 23.148 0 0 1 203.027 28.418 A 17.412 17.412 0 0 1 215.766 21.308 A 24.087 24.087 0 0 1 218.164 21.191 A 15.008 15.008 0 0 1 229.309 25.922 A 19.493 19.493 0 0 1 230.078 26.758 Z M 569.531 75 L 553.076 75 A 10.204 10.204 0 0 1 552.546 73.845 Q 552.063 72.614 551.648 70.854 A 37.259 37.259 0 0 1 551.514 70.264 A 14.784 14.784 0 0 1 541.04 75.864 A 21.261 21.261 0 0 1 538.818 75.977 A 20.521 20.521 0 0 1 532.008 74.882 A 18.016 18.016 0 0 1 526.123 71.46 A 15.011 15.011 0 0 1 522.164 66.275 A 14.812 14.812 0 0 1 520.898 60.107 A 18.481 18.481 0 0 1 521.649 54.695 A 13.962 13.962 0 0 1 527.246 47.119 A 21.328 21.328 0 0 1 533.084 44.356 Q 535.868 43.49 539.255 43.083 A 54.268 54.268 0 0 1 545.703 42.725 L 550.781 42.725 L 550.781 39.941 Q 550.781 32.666 544.482 32.666 Q 539.857 32.666 538.883 36.257 A 8.306 8.306 0 0 0 538.623 38.428 L 522.168 38.428 A 14.467 14.467 0 0 1 527.07 27.298 A 19.455 19.455 0 0 1 528.687 25.977 A 23.848 23.848 0 0 1 537.659 21.989 Q 540.966 21.241 544.799 21.195 A 42.122 42.122 0 0 1 545.312 21.191 A 33.53 33.53 0 0 1 551.759 21.774 Q 557.434 22.887 561.279 26.123 A 16.519 16.519 0 0 1 567.1 37.052 A 23.294 23.294 0 0 1 567.285 39.648 L 567.285 63.037 A 40.602 40.602 0 0 0 567.535 67.153 Q 568.016 71.303 569.405 73.938 A 11.517 11.517 0 0 0 569.531 74.17 L 569.531 75 Z M 87.354 49.854 L 87.354 48.486 A 37.184 37.184 0 0 1 88.081 40.969 A 28.899 28.899 0 0 1 90.356 34.18 Q 93.359 27.979 99.121 24.585 A 24.199 24.199 0 0 1 107.553 21.602 A 32.228 32.228 0 0 1 112.793 21.191 A 28.923 28.923 0 0 1 120.337 22.123 A 20.853 20.853 0 0 1 130.371 28.101 Q 136.816 35.01 136.816 47.363 L 136.816 53.76 L 104.102 53.76 Q 104.98 58.203 107.959 60.742 A 10.377 10.377 0 0 0 112.69 62.995 A 14.795 14.795 0 0 0 115.674 63.281 Q 123.486 63.281 127.881 57.813 L 135.4 66.699 A 19.291 19.291 0 0 1 130.259 71.528 A 25.493 25.493 0 0 1 126.685 73.462 A 29.454 29.454 0 0 1 114.551 75.977 A 33.207 33.207 0 0 1 105.76 74.87 A 24.882 24.882 0 0 1 94.873 68.726 A 24.272 24.272 0 0 1 87.504 53.057 A 33.251 33.251 0 0 1 87.354 49.854 Z M 446.387 75 L 422.998 75 L 422.998 3.906 L 445.898 3.906 A 35.672 35.672 0 0 1 456.677 5.493 A 31.771 31.771 0 0 1 462.842 8.179 Q 470.361 12.451 474.585 20.239 Q 478.809 28.027 478.857 37.695 L 478.857 40.967 A 39.675 39.675 0 0 1 477.552 51.312 A 33.872 33.872 0 0 1 474.731 58.472 A 30.161 30.161 0 0 1 463.11 70.581 A 32.693 32.693 0 0 1 447.534 74.977 A 38.67 38.67 0 0 1 446.387 75 Z M 519.141 21.777 L 518.848 37.061 L 513.428 36.67 A 18.92 18.92 0 0 0 509.944 36.966 Q 508.08 37.316 506.689 38.081 A 7.286 7.286 0 0 0 503.467 41.553 L 503.467 75 L 487.012 75 L 487.012 22.168 L 502.441 22.168 L 502.979 28.955 A 18.336 18.336 0 0 1 505.721 25.04 A 11.629 11.629 0 0 1 514.551 21.191 A 20.011 20.011 0 0 1 516.718 21.303 Q 517.791 21.42 518.72 21.66 A 11.404 11.404 0 0 1 519.141 21.777 Z M 273.291 22.168 L 273.291 75 L 256.787 75 L 256.787 22.168 L 273.291 22.168 Z M 445.898 17.139 L 440.137 17.139 L 440.137 61.816 L 446.094 61.816 A 16.496 16.496 0 0 0 450.952 61.138 A 12.536 12.536 0 0 0 457.422 56.567 Q 460.247 52.818 461.054 46.464 A 43.74 43.74 0 0 0 461.377 40.967 L 461.377 37.891 A 42.965 42.965 0 0 0 461.028 32.221 Q 460.203 26.037 457.422 22.363 A 12.842 12.842 0 0 0 448.663 17.33 A 19.21 19.21 0 0 0 445.898 17.139 Z M 371.436 59.717 L 371.436 37.5 A 7.767 7.767 0 0 0 366.297 34.127 A 12.551 12.551 0 0 0 363.77 33.887 Q 359.738 33.887 357.31 37.194 A 10.985 10.985 0 0 0 356.885 37.817 Q 354.419 41.71 354.395 49.073 A 44.493 44.493 0 0 0 354.395 49.219 A 28.114 28.114 0 0 0 354.657 53.189 Q 354.956 55.278 355.594 56.99 A 12.927 12.927 0 0 0 356.836 59.497 A 8.693 8.693 0 0 0 359.016 61.858 Q 360.839 63.181 363.297 63.274 A 9.922 9.922 0 0 0 363.672 63.281 Q 368.994 63.281 371.436 59.717 Z M 157.861 46.191 L 157.813 49.219 A 36.032 36.032 0 0 0 158.101 53.998 Q 158.801 59.202 161.203 61.488 A 6.696 6.696 0 0 0 166.016 63.281 Q 171.297 63.281 173.664 59 A 10.624 10.624 0 0 0 173.828 58.691 L 173.828 38.574 A 8.485 8.485 0 0 0 171.694 35.721 Q 170.041 34.317 167.65 33.988 A 11.255 11.255 0 0 0 166.113 33.887 A 6.773 6.773 0 0 0 159.753 37.78 Q 158.24 40.618 157.901 45.526 A 38.347 38.347 0 0 0 157.861 46.191 Z M 214.111 46.191 L 214.063 49.219 A 36.032 36.032 0 0 0 214.351 53.998 Q 215.051 59.202 217.453 61.488 A 6.696 6.696 0 0 0 222.266 63.281 Q 227.547 63.281 229.914 59 A 10.624 10.624 0 0 0 230.078 58.691 L 230.078 38.574 A 8.485 8.485 0 0 0 227.944 35.721 Q 226.291 34.317 223.9 33.988 A 11.255 11.255 0 0 0 222.363 33.887 A 6.773 6.773 0 0 0 216.003 37.78 Q 214.49 40.618 214.151 45.526 A 38.347 38.347 0 0 0 214.111 46.191 Z M 256.368 5.528 A 7.922 7.922 0 0 0 255.811 8.545 A 9.409 9.409 0 0 0 255.821 8.993 A 7.281 7.281 0 0 0 258.35 14.307 A 8.625 8.625 0 0 0 262.006 16.21 A 11.925 11.925 0 0 0 264.941 16.553 A 12.387 12.387 0 0 0 267.327 16.333 A 8.76 8.76 0 0 0 271.533 14.307 A 7.342 7.342 0 0 0 273.514 11.562 A 7.922 7.922 0 0 0 274.072 8.545 A 9.409 9.409 0 0 0 274.062 8.097 A 7.281 7.281 0 0 0 271.533 2.783 A 8.625 8.625 0 0 0 267.877 0.88 A 11.925 11.925 0 0 0 264.941 0.537 A 12.387 12.387 0 0 0 262.556 0.756 A 8.76 8.76 0 0 0 258.35 2.783 A 7.342 7.342 0 0 0 256.368 5.528 Z M 104.102 43.457 L 120.703 43.457 L 120.703 42.188 Q 120.785 38.862 119.314 36.797 A 6.416 6.416 0 0 0 118.701 36.06 A 6.798 6.798 0 0 0 115.521 34.232 Q 114.252 33.887 112.695 33.887 Q 105.469 33.887 104.102 43.457 Z M 550.781 59.961 L 550.781 51.514 L 545.996 51.514 A 13.944 13.944 0 0 0 542.753 51.857 Q 537.402 53.141 537.402 59.229 A 5.413 5.413 0 0 0 537.667 60.957 A 4.503 4.503 0 0 0 538.916 62.866 A 5.214 5.214 0 0 0 541.822 64.196 A 7.093 7.093 0 0 0 542.773 64.258 A 11.828 11.828 0 0 0 545.017 64.057 Q 546.375 63.794 547.46 63.19 A 7.052 7.052 0 0 0 547.876 62.939 A 10.621 10.621 0 0 0 549.309 61.835 Q 550.068 61.131 550.559 60.346 A 6.159 6.159 0 0 0 550.781 59.961 Z" vector-effect="non-scaling-stroke"/></g></svg>